<mxfile host="app.diagrams.net" modified="2024-04-01T09:51:37.928Z" agent="Mozilla/5.0 (Macintosh; Intel Mac OS X 10_15_7) AppleWebKit/537.36 (KHTML, like Gecko) Chrome/123.0.0.0 Safari/537.36 Edg/123.0.0.0" version="24.2.1" etag="CqXdlaEIcKVRk4FPOh_9" type="github">
  <diagram name="第 1 页" id="5unee45NQ4fBKvgSOmDR">
    <mxGraphModel>
      <root>
        <mxCell id="0" />
        <mxCell id="1" parent="0" />
      </root>
    </mxGraphModel>
  </diagram>
</mxfile>
